<svg width="129" height="209" viewBox="0 0 129 209" fill="none" xmlns="http://www.w3.org/2000/svg">
<path d="M113.278 47.1973H103.104L112.898 44.0168L109.085 32.2442L99.0211 35.5038L107.471 29.3643L100.208 19.348L92.1537 25.2027L98.0559 17.0694L88.0396 9.79066L81.7419 18.4777L85.0332 8.3349L73.2605 4.50562L70.2066 13.8889V3.99927L57.8327 3.99927V14.7434L54.5097 4.50562L42.7371 8.3349L45.8068 17.7973L39.9996 9.79066L29.9834 17.0694L36.202 25.6299L27.5624 19.348L20.2994 29.3643L28.5276 35.3455L18.9702 32.2442L15.1409 44.0168L24.9515 47.1973H14.4922V59.5713H24.9515L15.1409 62.7676L18.9702 74.5403L28.5276 71.4389L20.2994 77.4043L27.5624 87.4206L36.202 81.1545L29.9834 89.6992L39.9996 96.9779L45.8068 88.9871L42.7371 98.4495L54.5097 102.279L57.8327 92.041V102.769H70.2066V92.8797L70.2224 92.9271L73.2605 102.279L85.0332 98.4495L81.7419 88.2909L88.0396 96.9779L98.0559 89.6992L92.1537 81.5817L100.208 87.4206L107.471 77.4043L99.0211 71.2648L109.085 74.5403L112.898 62.7676L103.104 59.5713H113.278V47.1973ZM64.0355 72.4041C53.5287 72.4041 45.0157 63.8911 45.0157 53.3843C45.0157 42.8775 53.5287 34.3803 64.0355 34.3803C74.5422 34.3803 83.0394 42.8933 83.0394 53.3843C83.0394 63.8753 74.5264 72.4041 64.0355 72.4041Z" fill="#407AB9"/>
<path d="M124.057 170.384C114.816 169.973 107.125 170.495 100.638 171.792C87.6942 174.388 77.1716 177.616 77.1716 194.293L77.2191 204.294H50.8414L50.7939 194.262C50.7939 177.568 40.2555 174.34 27.2802 171.777C20.8401 170.495 13.1815 169.989 4.00391 170.384C4.93749 164.245 5.85525 155.051 6.78884 148.928C25.3972 147.915 39.0054 152.345 49.4805 159.656C45.5089 149.339 37.2015 141.396 20.492 137.551C22.4224 130.841 24.3582 124.132 26.2992 117.423C42.36 121.949 51.9648 129.718 57.8353 139.054V102.771H70.2093V92.8809L70.2251 92.9283V139.085C76.0798 129.734 85.6846 121.949 101.761 117.423L107.584 137.551C90.8589 141.396 82.5674 149.339 78.5799 159.656C89.055 152.345 102.663 147.915 121.287 148.928C122.205 155.051 123.123 164.245 124.057 170.384Z" fill="#FF66B6"/>
<path d="M83.0433 53.3829C83.0433 63.8897 74.5303 72.4027 64.0393 72.4027C53.5484 72.4027 45.0195 63.8897 45.0195 53.3829C45.0195 42.8761 53.5326 34.3789 64.0393 34.3789C74.5461 34.3789 83.0433 42.8919 83.0433 53.3829Z" fill="#FF66B6"/>
<path d="M70.2031 2C70.9461 2 71.5926 2.40642 71.9375 3.00781C72.4505 2.55711 73.1795 2.37798 73.876 2.60449L85.6494 6.43359C86.4062 6.67985 86.9128 7.33552 87.0107 8.0752C87.2276 7.94547 87.4692 7.85683 87.7236 7.81641C88.2478 7.73315 88.7835 7.86185 89.2129 8.17383L99.2285 15.4521C99.8501 15.9041 100.133 16.6471 100.029 17.3584C100.191 17.3441 100.355 17.3481 100.519 17.374C101.043 17.4573 101.513 17.7451 101.824 18.1748L109.087 28.1914C109.538 28.8138 109.577 29.6084 109.259 30.2529C109.512 30.2754 109.761 30.345 109.992 30.4629C110.465 30.7041 110.822 31.1234 110.985 31.6279L114.799 43.4014C115.044 44.1579 114.812 44.9521 114.271 45.4658C114.87 45.8113 115.274 46.4563 115.274 47.1973V59.5723C115.274 60.3174 114.866 60.9655 114.262 61.3096C114.809 61.823 115.045 62.6227 114.799 63.3838L110.985 75.1572C110.822 75.6623 110.463 76.0821 109.99 76.3232C109.762 76.4394 109.516 76.5081 109.267 76.5312C109.577 77.173 109.535 77.9604 109.087 78.5781L101.824 88.5947C101.397 89.1845 100.707 89.4698 100.03 89.4111C100.059 89.6089 100.059 89.8116 100.027 90.0127C99.9444 90.5365 99.6575 91.0065 99.2285 91.3184L89.2129 98.5957C88.7835 98.9078 88.2479 99.0364 87.7236 98.9531C87.4697 98.9128 87.2292 98.8236 87.0127 98.6943C86.9205 99.4411 86.4119 100.104 85.6494 100.353L73.876 104.182C73.3716 104.346 72.8223 104.303 72.3496 104.062C72.3054 104.04 72.2629 104.014 72.2207 103.988V132.927C78.4823 125.424 87.6758 119.309 101.216 115.497L101.414 115.451C102.408 115.277 103.392 115.877 103.679 116.866L109.502 136.995C109.655 137.523 109.583 138.091 109.305 138.564C109.026 139.038 108.564 139.377 108.028 139.5C95.4686 142.387 88.0247 147.583 83.5859 154.251C93.3083 149.085 105.303 146.192 120.504 146.886L121.393 146.93L121.568 146.947C122.435 147.071 123.13 147.751 123.262 148.631C123.61 150.953 123.957 153.707 124.303 156.55L124.994 162.272C125.34 165.103 125.684 167.81 126.03 170.084C126.12 170.676 125.94 171.277 125.54 171.722C125.14 172.167 124.562 172.409 123.964 172.383C114.843 171.977 107.32 172.493 101.026 173.752L101.027 173.753C94.5111 175.059 89.0888 176.454 85.2549 179.356C81.6079 182.117 79.168 186.44 79.168 194.293L79.2148 204.284C79.2173 204.816 79.0071 205.327 78.6318 205.704C78.2566 206.081 77.7467 206.294 77.2148 206.294H50.8369C49.736 206.294 48.842 205.404 48.8369 204.303L48.79 194.271V194.262C48.79 186.401 46.3475 182.075 42.6943 179.316C38.8538 176.416 33.4195 175.029 26.8887 173.738H26.8857C20.6404 172.495 13.1477 171.992 4.08594 172.383C3.48869 172.408 2.91111 172.165 2.51172 171.721C2.11235 171.276 1.93268 170.675 2.02246 170.084C2.48363 167.051 2.94231 163.252 3.40625 159.41C3.86779 155.589 4.33514 151.724 4.80762 148.625L4.8418 148.453C5.04844 147.603 5.78904 146.978 6.67578 146.93C22.2914 146.08 34.5643 148.987 44.4766 154.257C40.0425 147.587 32.592 142.389 20.0391 139.5C19.504 139.377 19.0433 139.039 18.7646 138.565C18.4861 138.092 18.4138 137.526 18.5654 136.998C20.4961 130.288 22.4327 123.576 24.374 116.866L24.4404 116.674C24.8168 115.738 25.846 115.218 26.8379 115.497C40.3697 119.31 49.5606 125.418 55.8301 132.911L55.8291 103.777C55.704 103.888 55.5663 103.985 55.415 104.062C54.9423 104.303 54.3932 104.346 53.8887 104.182L42.1152 100.353C41.3954 100.118 40.8988 99.5151 40.7676 98.8203C40.145 99.0801 39.407 99.0221 38.8213 98.5967L28.8047 91.3184C28.3755 91.0065 28.0878 90.5367 28.0049 90.0127C27.9708 89.7971 27.9742 89.5794 28.0098 89.3682C27.761 89.4257 27.5012 89.4365 27.2441 89.3955C26.7204 89.312 26.2508 89.0241 25.9395 88.5947L18.6768 78.5781C18.3656 78.1488 18.2379 77.6135 18.3213 77.0898C18.3551 76.8778 18.4228 76.6746 18.5195 76.4873C17.8585 76.3345 17.2907 75.8522 17.0654 75.1602L13.2363 63.3867C13.0029 62.6689 13.197 61.9141 13.6787 61.3994C12.9783 61.0883 12.4893 60.388 12.4893 59.5723L12.4893 47.1973C12.4894 46.3849 12.9741 45.686 13.6699 45.373C13.5469 45.2398 13.4403 45.0902 13.3564 44.9258C13.1155 44.453 13.0723 43.904 13.2363 43.3994L17.0654 31.626L17.1387 31.4346C17.4002 30.842 17.9248 30.4316 18.5264 30.2949C18.1848 29.6433 18.2157 28.8274 18.6768 28.1914L25.9395 18.1748C26.251 17.7451 26.721 17.4573 27.2451 17.374C27.5017 17.3333 27.7615 17.343 28.0098 17.4004C27.8889 16.6764 28.1706 15.913 28.8047 15.4521L38.8213 8.17383L38.9873 8.06543C39.3846 7.83307 39.852 7.74361 40.3105 7.81641C40.4706 7.84182 40.6246 7.8884 40.7715 7.9502C40.9074 7.26236 41.4012 6.66584 42.1152 6.43359L53.8887 2.60449L54.0791 2.55273C54.5288 2.45429 55.0013 2.51377 55.415 2.72461C55.641 2.83977 55.8391 2.99716 56.0039 3.18359C56.3163 2.48624 57.0155 2.00001 57.8291 2L70.2031 2Z" stroke="black" stroke-width="4" stroke-linejoin="round"/>
</svg>
